<?xml version="1.0" standalone="no"?>
<!DOCTYPE svg PUBLIC "-//W3C//DTD SVG 20010904//EN"
 "http://www.w3.org/TR/2001/REC-SVG-20010904/DTD/svg10.dtd">
<svg version="1.0" xmlns="http://www.w3.org/2000/svg"
 width="146.000000pt" height="145.000000pt" viewBox="0 0 146.000000 145.000000"
 preserveAspectRatio="xMidYMid meet">

<g transform="translate(0.000000,145.000000) scale(0.100000,-0.100000)"
fill="#000000" stroke="none">
<path d="M595 1386 c-215 -50 -380 -176 -470 -360 -100 -201 -100 -391 0 -594
79 -160 220 -279 400 -339 70 -23 96 -27 210 -27 114 0 140 4 210 27 180 60
321 179 400 339 100 203 100 393 0 596 -80 160 -222 281 -400 338 -99 32 -258
41 -350 20z m273 -32 c114 -23 229 -82 312 -160 88 -83 136 -156 174 -264 27
-76 30 -98 30 -200 0 -102 -3 -124 -30 -200 -38 -108 -86 -181 -174 -264 -114
-107 -288 -176 -445 -176 -157 0 -331 69 -445 176 -88 83 -136 156 -174 264
-27 76 -30 98 -30 200 0 102 3 124 30 200 38 108 86 181 174 264 152 143 368
203 578 160z"/>
<path d="M490 898 c-1 -68 -5 -157 -10 -198 -7 -62 -12 -78 -35 -97 -30 -27
-88 -30 -147 -9 l-38 14 0 -58 c0 -40 5 -62 16 -70 26 -22 215 -26 268 -6 91
35 99 62 111 369 l6 177 -85 0 -86 0 0 -122z"/>
<path d="M726 989 c-3 -17 -6 -45 -6 -62 l0 -30 85 5 c47 3 87 3 89 -1 4 -8
-11 -345 -19 -393 l-5 -38 84 0 84 0 6 63 c3 34 8 129 11 211 3 82 8 153 12
159 3 5 39 6 89 2 l84 -7 0 61 0 61 -254 0 -253 0 -7 -31z"/>
</g>
</svg>
